<svg width="100" height="100" viewBox="0 0 100 100" fill="none" xmlns="http://www.w3.org/2000/svg">
<rect width="100" height="100" rx="10" fill="#001E3C"/>
<path d="M4 4L33.7386 4L95 4L4 89L4 4Z" fill="white" fill-opacity="0.2"/>
<path d="M13 53.7529V13L41.125 33.3765V46.9608L22.375 33.3765V60.5451L13 53.7529Z" fill="#00B0FF"/>
<path d="M41.125 33.3765L69.25 13V53.7529L50.5 67.3373L41.125 60.5451L59.875 46.9608V33.3765L41.125 46.9608V33.3765Z" fill="#0081CB"/>
<path d="M41.125 60.5451V74.1294L59.875 87.7137V74.1294L41.125 60.5451Z" fill="#00B0FF"/>
<path d="M59.875 87.7137L88 67.3373V40.1686L78.625 46.9608V60.5451L59.875 74.1294V87.7137ZM78.625 33.3765V19.7922L88 13V26.5843L78.625 33.3765Z" fill="#0081CB"/>
</svg>
